<svg xmlns="http://www.w3.org/2000/svg" xmlns:xlink="http://www.w3.org/1999/xlink" width="500" zoomAndPan="magnify" viewBox="0 0 375 374.999991" height="500" preserveAspectRatio="xMidYMid meet" version="1.0"><defs><clipPath id="d6f3df75da"><path d="M 123 117 L 293.773438 117 L 293.773438 245 L 123 245 Z M 123 117 " clip-rule="nonzero"/></clipPath><clipPath id="d89ca00c75"><path d="M 82 89.738281 L 278 89.738281 L 278 285.488281 L 82 285.488281 Z M 82 89.738281 " clip-rule="nonzero"/></clipPath><clipPath id="0533a817c1"><path d="M 89 96.609375 L 272 96.609375 L 272 278.109375 L 89 278.109375 Z M 89 96.609375 " clip-rule="nonzero"/></clipPath></defs><g clip-path="url(#d6f3df75da)"><path fill="#d9d9d9" d="M 155.054688 219.386719 L 176.539062 243.839844 L 177.300781 244.707031 L 293.285156 142.832031 L 271.03125 117.515625 L 180.003906 197.472656 L 148.257812 161.359375 L 123.300781 183.273438 Z M 155.054688 219.386719 " fill-opacity="1" fill-rule="nonzero"/></g><g clip-path="url(#d89ca00c75)"><path fill="#d9d9d9" d="M 253.320312 261.019531 L 106.472656 261.019531 L 106.472656 114.207031 L 253.320312 114.207031 L 253.320312 118.394531 L 273.636719 100.59375 C 269.246094 94.046875 261.796875 89.738281 253.320312 89.738281 L 106.472656 89.738281 C 92.960938 89.738281 82 100.691406 82 114.207031 L 82 261.019531 C 82 274.527344 92.960938 285.488281 106.472656 285.488281 L 253.320312 285.488281 C 266.839844 285.488281 277.796875 274.527344 277.796875 261.019531 L 277.796875 170.910156 L 253.320312 192.40625 Z M 253.320312 261.019531 " fill-opacity="1" fill-rule="nonzero"/></g><path fill="#000000" d="M 157.3125 216.824219 L 177.277344 239.496094 L 177.984375 240.296875 L 285.765625 145.839844 L 265.085938 122.363281 L 180.496094 196.503906 L 150.992188 163.019531 L 127.800781 183.339844 Z M 157.3125 216.824219 " fill-opacity="1" fill-rule="nonzero"/><g clip-path="url(#0533a817c1)"><path fill="#000000" d="M 248.628906 255.421875 L 112.164062 255.421875 L 112.164062 119.296875 L 248.628906 119.296875 L 248.628906 123.183594 L 267.507812 106.679688 C 263.429688 100.609375 256.503906 96.609375 248.628906 96.609375 L 112.164062 96.609375 C 99.605469 96.609375 89.421875 106.769531 89.421875 119.296875 L 89.421875 255.421875 C 89.421875 267.949219 99.605469 278.109375 112.164062 278.109375 L 248.628906 278.109375 C 261.191406 278.109375 271.375 267.949219 271.375 255.421875 L 271.375 171.875 L 248.628906 191.804688 Z M 248.628906 255.421875 " fill-opacity="1" fill-rule="nonzero"/></g></svg>