<svg xmlns="http://www.w3.org/2000/svg" xmlns:xlink="http://www.w3.org/1999/xlink" width="500" zoomAndPan="magnify" viewBox="0 0 375 374.999991" height="500" preserveAspectRatio="xMidYMid meet" version="1.0"><defs><clipPath id="40ab773592"><path d="M 19.324219 19.324219 L 355.324219 19.324219 L 355.324219 355.324219 L 19.324219 355.324219 Z M 19.324219 19.324219 " clip-rule="nonzero"/></clipPath><clipPath id="dbeba79e7c"><path d="M 54.210938 54.210938 L 320.460938 54.210938 L 320.460938 320.460938 L 54.210938 320.460938 Z M 54.210938 54.210938 " clip-rule="nonzero"/></clipPath></defs><rect x="-37.5" width="450" fill="#ffffff" y="-37.499999" height="449.999989" fill-opacity="1"/><rect x="-37.5" width="450" fill="#ffffff" y="-37.499999" height="449.999989" fill-opacity="1"/><rect x="-37.5" width="450" fill="#ffffff" y="-37.499999" height="449.999989" fill-opacity="1"/><g clip-path="url(#40ab773592)"><path fill="#ffffff" d="M 355.324219 187.324219 C 355.324219 190.074219 355.257812 192.820312 355.121094 195.566406 C 354.988281 198.3125 354.785156 201.054688 354.515625 203.792969 C 354.246094 206.527344 353.910156 209.253906 353.507812 211.976562 C 353.101562 214.695312 352.632812 217.402344 352.097656 220.097656 C 351.558594 222.796875 350.957031 225.476562 350.289062 228.144531 C 349.621094 230.8125 348.886719 233.460938 348.089844 236.09375 C 347.292969 238.722656 346.429688 241.332031 345.503906 243.921875 C 344.578125 246.511719 343.589844 249.074219 342.535156 251.613281 C 341.484375 254.15625 340.371094 256.667969 339.195312 259.152344 C 338.019531 261.640625 336.78125 264.09375 335.488281 266.519531 C 334.191406 268.945312 332.835938 271.335938 331.421875 273.695312 C 330.007812 276.050781 328.539062 278.375 327.011719 280.660156 C 325.484375 282.945312 323.902344 285.191406 322.261719 287.402344 C 320.625 289.609375 318.933594 291.777344 317.191406 293.902344 C 315.445312 296.027344 313.652344 298.109375 311.804688 300.144531 C 309.957031 302.183594 308.0625 304.175781 306.117188 306.117188 C 304.175781 308.0625 302.183594 309.957031 300.144531 311.804688 C 298.109375 313.652344 296.027344 315.445312 293.902344 317.191406 C 291.777344 318.933594 289.609375 320.625 287.402344 322.261719 C 285.191406 323.902344 282.945312 325.484375 280.660156 327.011719 C 278.375 328.539062 276.050781 330.007812 273.695312 331.421875 C 271.335938 332.835938 268.945312 334.191406 266.519531 335.488281 C 264.09375 336.78125 261.640625 338.019531 259.152344 339.195312 C 256.667969 340.371094 254.15625 341.484375 251.613281 342.535156 C 249.074219 343.589844 246.511719 344.578125 243.921875 345.503906 C 241.332031 346.429688 238.722656 347.292969 236.09375 348.089844 C 233.460938 348.886719 230.8125 349.621094 228.144531 350.289062 C 225.476562 350.957031 222.796875 351.558594 220.097656 352.097656 C 217.402344 352.632812 214.695312 353.101562 211.976562 353.503906 C 209.253906 353.910156 206.527344 354.246094 203.792969 354.515625 C 201.054688 354.785156 198.3125 354.988281 195.566406 355.121094 C 192.820312 355.257812 190.074219 355.324219 187.324219 355.324219 C 184.574219 355.324219 181.828125 355.257812 179.082031 355.121094 C 176.335938 354.988281 173.59375 354.785156 170.855469 354.515625 C 168.121094 354.246094 165.394531 353.910156 162.671875 353.503906 C 159.953125 353.101562 157.246094 352.632812 154.550781 352.097656 C 151.851562 351.558594 149.171875 350.957031 146.503906 350.289062 C 143.835938 349.621094 141.1875 348.886719 138.554688 348.089844 C 135.925781 347.292969 133.316406 346.429688 130.726562 345.503906 C 128.136719 344.578125 125.574219 343.589844 123.035156 342.535156 C 120.492188 341.484375 117.980469 340.371094 115.496094 339.195312 C 113.007812 338.019531 110.554688 336.78125 108.128906 335.488281 C 105.703125 334.191406 103.3125 332.835938 100.953125 331.421875 C 98.597656 330.007812 96.273438 328.539062 93.988281 327.011719 C 91.703125 325.484375 89.457031 323.902344 87.246094 322.261719 C 85.039062 320.625 82.871094 318.933594 80.746094 317.191406 C 78.621094 315.445312 76.539062 313.652344 74.503906 311.804688 C 72.464844 309.957031 70.472656 308.0625 68.53125 306.117188 C 66.585938 304.175781 64.691406 302.183594 62.84375 300.144531 C 61 298.109375 59.203125 296.027344 57.457031 293.902344 C 55.714844 291.777344 54.023438 289.609375 52.386719 287.402344 C 50.746094 285.191406 49.164062 282.945312 47.636719 280.660156 C 46.109375 278.375 44.640625 276.050781 43.226562 273.695312 C 41.8125 271.335938 40.457031 268.945312 39.160156 266.519531 C 37.867188 264.09375 36.628906 261.640625 35.453125 259.152344 C 34.277344 256.667969 33.164062 254.15625 32.113281 251.613281 C 31.058594 249.074219 30.070312 246.511719 29.144531 243.921875 C 28.21875 241.332031 27.355469 238.722656 26.558594 236.09375 C 25.761719 233.460938 25.027344 230.8125 24.359375 228.144531 C 23.691406 225.476562 23.089844 222.796875 22.550781 220.097656 C 22.015625 217.402344 21.546875 214.695312 21.144531 211.976562 C 20.738281 209.253906 20.402344 206.527344 20.132812 203.792969 C 19.863281 201.054688 19.660156 198.3125 19.527344 195.566406 C 19.390625 192.820312 19.324219 190.074219 19.324219 187.324219 C 19.324219 184.574219 19.390625 181.828125 19.527344 179.082031 C 19.660156 176.335938 19.863281 173.59375 20.132812 170.855469 C 20.402344 168.121094 20.738281 165.394531 21.144531 162.671875 C 21.546875 159.953125 22.015625 157.246094 22.550781 154.550781 C 23.089844 151.851562 23.691406 149.171875 24.359375 146.503906 C 25.027344 143.835938 25.761719 141.1875 26.558594 138.554688 C 27.355469 135.925781 28.21875 133.316406 29.144531 130.726562 C 30.070312 128.136719 31.058594 125.574219 32.113281 123.035156 C 33.164062 120.492188 34.277344 117.980469 35.453125 115.496094 C 36.628906 113.007812 37.867188 110.554688 39.160156 108.128906 C 40.457031 105.703125 41.8125 103.3125 43.226562 100.953125 C 44.640625 98.597656 46.109375 96.273438 47.636719 93.988281 C 49.164062 91.703125 50.746094 89.457031 52.386719 87.246094 C 54.023438 85.039062 55.714844 82.871094 57.457031 80.746094 C 59.203125 78.621094 61 76.539062 62.84375 74.503906 C 64.691406 72.464844 66.585938 70.472656 68.53125 68.53125 C 70.472656 66.585938 72.464844 64.691406 74.503906 62.84375 C 76.539062 61 78.621094 59.203125 80.746094 57.457031 C 82.871094 55.714844 85.039062 54.023438 87.246094 52.386719 C 89.457031 50.746094 91.703125 49.164062 93.988281 47.636719 C 96.273438 46.109375 98.597656 44.640625 100.953125 43.226562 C 103.3125 41.8125 105.703125 40.457031 108.128906 39.160156 C 110.554688 37.867188 113.007812 36.628906 115.496094 35.453125 C 117.980469 34.277344 120.492188 33.164062 123.035156 32.113281 C 125.574219 31.058594 128.136719 30.070312 130.726562 29.144531 C 133.316406 28.21875 135.925781 27.355469 138.554688 26.558594 C 141.1875 25.761719 143.835938 25.027344 146.503906 24.359375 C 149.171875 23.691406 151.851562 23.089844 154.550781 22.550781 C 157.246094 22.015625 159.953125 21.546875 162.671875 21.144531 C 165.394531 20.738281 168.121094 20.402344 170.855469 20.132812 C 173.59375 19.863281 176.335938 19.660156 179.082031 19.527344 C 181.828125 19.390625 184.574219 19.324219 187.324219 19.324219 C 190.074219 19.324219 192.820312 19.390625 195.566406 19.527344 C 198.3125 19.660156 201.054688 19.863281 203.792969 20.132812 C 206.527344 20.402344 209.253906 20.738281 211.976562 21.144531 C 214.695312 21.546875 217.402344 22.015625 220.097656 22.550781 C 222.796875 23.089844 225.476562 23.691406 228.144531 24.359375 C 230.8125 25.027344 233.460938 25.761719 236.09375 26.558594 C 238.722656 27.355469 241.332031 28.21875 243.921875 29.144531 C 246.511719 30.070312 249.074219 31.058594 251.613281 32.113281 C 254.15625 33.164062 256.667969 34.277344 259.152344 35.453125 C 261.640625 36.628906 264.09375 37.867188 266.519531 39.160156 C 268.945312 40.457031 271.335938 41.8125 273.695312 43.226562 C 276.050781 44.640625 278.375 46.109375 280.660156 47.636719 C 282.945312 49.164062 285.191406 50.746094 287.402344 52.386719 C 289.609375 54.023438 291.777344 55.714844 293.902344 57.457031 C 296.027344 59.203125 298.109375 61 300.144531 62.84375 C 302.183594 64.691406 304.175781 66.585938 306.117188 68.53125 C 308.0625 70.472656 309.957031 72.464844 311.804688 74.503906 C 313.652344 76.539062 315.445312 78.621094 317.191406 80.746094 C 318.933594 82.871094 320.625 85.039062 322.261719 87.246094 C 323.902344 89.457031 325.484375 91.703125 327.011719 93.988281 C 328.539062 96.273438 330.007812 98.597656 331.421875 100.953125 C 332.835938 103.3125 334.191406 105.703125 335.488281 108.128906 C 336.78125 110.554688 338.019531 113.007812 339.195312 115.496094 C 340.371094 117.980469 341.484375 120.492188 342.535156 123.035156 C 343.589844 125.574219 344.578125 128.136719 345.503906 130.726562 C 346.429688 133.316406 347.292969 135.925781 348.089844 138.554688 C 348.886719 141.1875 349.621094 143.835938 350.289062 146.503906 C 350.957031 149.171875 351.558594 151.851562 352.097656 154.550781 C 352.632812 157.246094 353.101562 159.953125 353.507812 162.671875 C 353.910156 165.394531 354.246094 168.121094 354.515625 170.855469 C 354.785156 173.59375 354.988281 176.335938 355.121094 179.082031 C 355.257812 181.828125 355.324219 184.574219 355.324219 187.324219 Z M 355.324219 187.324219 " fill-opacity="1" fill-rule="nonzero"/></g><g clip-path="url(#dbeba79e7c)"><path fill="#000000" d="M 94.148438 54.210938 C 72.242188 54.210938 54.210938 72.242188 54.210938 94.148438 L 54.210938 280.523438 C 54.210938 302.429688 72.242188 320.460938 94.148438 320.460938 L 280.523438 320.460938 C 302.429688 320.460938 320.460938 302.429688 320.460938 280.523438 L 320.460938 174.023438 L 293.835938 174.023438 L 293.835938 280.523438 C 293.835938 287.90625 287.90625 293.835938 280.523438 293.835938 L 94.148438 293.835938 C 86.765625 293.835938 80.835938 287.90625 80.835938 280.523438 L 80.835938 94.148438 C 80.835938 86.765625 86.765625 80.835938 94.148438 80.835938 L 213.960938 80.835938 L 213.960938 54.210938 Z M 300.128906 79.691406 L 176.414062 210.839844 L 127.535156 161.960938 L 108.710938 180.785156 L 176.960938 249.035156 L 319.5 97.972656 Z M 300.128906 79.691406 " fill-opacity="1" fill-rule="nonzero"/></g></svg>